<svg id="Layer_1" data-name="Layer 1" xmlns="http://www.w3.org/2000/svg" viewBox="0 0 192 192"><title>plates_blk</title><circle cx="39.7" cy="53.1" r="16.6"/><path d="M41.1,74.4,45,71.8a16.5,16.5,0,0,1,6.6-2.7l26-4,24.5-12.6a7.7,7.7,0,0,1,9.8,2.3h0a7.8,7.8,0,0,1-3,11.5L78.5,80.8,62.8,82.6l27.7,35.1,21.2-16.6,37.9-18.6a7.9,7.9,0,0,1,10.7,3.8h0a8,8,0,0,1-3.1,10.2l-38.1,22.1L97.8,140.8A21.8,21.8,0,0,1,84.6,147h0a21.6,21.6,0,0,1-19.7-9.3l-28-40.8A16.1,16.1,0,0,1,41.1,74.4Z"/><rect x="10.2" y="148.1" width="171.6" height="7.38"/></svg>