<svg id="Layer_1" data-name="Layer 1" xmlns="http://www.w3.org/2000/svg" viewBox="0 0 192 192"><title>yoga_blk</title><circle cx="96" cy="41.5" r="25"/><path d="M155.1,129.1c-7.1-.8-11.4-8.4-17.7-20.8C130,93.8,119.8,74,96,74S62,93.8,54.6,108.3c-6.3,12.4-10.6,20-17.7,20.8A10.5,10.5,0,0,0,38,150h1.1l3.3-.5c-1.3,2.4-1.6,5.7-.9,10.1,3,16.9,43.4,16,54.8,16h12.3c7.2-.7,8.3-4,8.9-8.4a7.4,7.4,0,0,0-1.6-6.3,5.3,5.3,0,0,0-4.6-1.7h-1.8a141.8,141.8,0,0,1-37-1.1,3.6,3.6,0,0,1-3-4.1,3.5,3.5,0,0,1,4-2.9,140.3,140.3,0,0,0,35.4,1.2l1.8-.2a12.5,12.5,0,0,1,10.3,3.9c2.9,3,4.1,7.4,3.5,12.1a21.9,21.9,0,0,1-1.9,6.4c13.4-1.6,26.7-5.5,28.4-14.9.8-4.4.5-7.6-.8-10l2.7.4H154a10.5,10.5,0,0,0,1.1-20.9ZM54.7,143.8c8.2-6.1,13.4-15.7,17.8-24.3l1.4,24.7C66.2,143.7,59.7,143.4,54.7,143.8Zm64.6.4,1.6-22c4.1,7.8,9,16.1,16.3,21.6A124.9,124.9,0,0,0,119.3,144.2Z"/></svg>